<svg viewBox="0,0,1000,600" xmlns="http://www.w3.org/2000/svg" xmlns:xlink="http://www.w3.org/1999/xlink"><g><rect x="30" y="25" height="207.87069864442128" width="15" fill="#0d0887"><title>cases</title></rect><rect x="338.3333333333333" y="25" height="236.9708029197081" width="15" fill="#280592"><title>Long-term</title></rect><rect x="30" y="242.87069864442128" height="100.26607577337506" width="15" fill="#3c049b"><title>deaths</title></rect><rect x="646.6666666666666" y="29.031163052515154" height="185.1824817518248" width="15" fill="#4e02a2"><title>compartmental</title></rect><rect x="955" y="25" height="258.2615571776155" width="15" fill="#6001a6"><title>cases</title></rect><rect x="955" y="293.2615571776155" height="109.4355231143553" width="15" fill="#7100a8"><title>deaths</title></rect><rect x="646.6666666666666" y="227.2830672544611" height="185.18248175182467" width="15" fill="#8104a7"><title>statistical</title></rect><rect x="30" y="429.78362877997904" height="34.719847062912834" width="15" fill="#910ea3"><title>mobility</title></rect><rect x="30" y="353.13677441779635" height="16.582725060827215" width="15" fill="#a11b9b"><title>hospitalizations</title></rect><rect x="338.3333333333333" y="271.9708029197081" height="193.02919708029202" width="15" fill="#ae2892"><title>Short-term</title></rect><rect x="30" y="526.3846020159888" height="8.168057003823492" width="15" fill="#bb3488"><title>testing</title></rect><rect x="955" y="412.6970802919708" height="62.30291970802932" width="15" fill="#c6417d"><title>other</title></rect><rect x="30" y="390.50417101147025" height="29.27945776850879" width="15" fill="#d04d73"><title>demographics</title></rect><rect x="30" y="560.10514424748" height="1.2330552659019531" width="15" fill="#da5a6a"><title>hospital resources</title></rect><rect x="646.6666666666666" y="422.46554900628576" height="59.635036496350494" width="15" fill="#e26660"><title>hybrid</title></rect><rect x="30" y="571.3381995133819" height="0.5231143552312005" width="15" fill="#ea7457"><title>rt</title></rect><rect x="30" y="474.5034758428919" height="3.325512686826528" width="15" fill="#f1834c"><title>health risk factors</title></rect><rect x="30" y="487.8289885297184" height="6.987313173444591" width="15" fill="#f79143"><title>human behavior</title></rect><rect x="30" y="544.5526590198123" height="5.552485227667717" width="15" fill="#fba139"><title>climate</title></rect><rect x="30" y="504.816301703163" height="11.568300312825784" width="15" fill="#fdb130"><title>policy</title></rect><rect x="30" y="379.71949947862356" height="0.7846715328466871" width="15" fill="#fdc229"><title>vaccination</title></rect><rect x="30" y="581.8613138686131" height="1.5693430656932605" width="15" fill="#fbd324"><title>stock market data</title></rect><rect x="30" y="593.4306569343064" height="1.5693430656933742" width="15" fill="#f6e626"><title>wastewater concentration of covid-19</title></rect></g><g font-family="sans-serif" font-size="11"><text x="51" y="128.93534932221064" dy="0.35em" text-anchor="start">Cases</text><text x="359.3333333333333" y="143.48540145985405" dy="0.35em" text-anchor="start">Long-term</text><text x="51" y="293.0037365311088" dy="0.35em" text-anchor="start">Deaths</text><text x="640.6666666666666" y="121.62240392842756" dy="0.35em" text-anchor="end">Compartmental</text><text x="949" y="154.13077858880774" dy="0.35em" text-anchor="end">Cases</text><text x="949" y="347.97931873479314" dy="0.35em" text-anchor="end">Deaths</text><text x="640.6666666666666" y="319.87430813037344" dy="0.35em" text-anchor="end">Statistical</text><text x="51" y="447.1435523114354" dy="0.35em" text-anchor="start">Mobility</text><text x="51" y="361.42813694820995" dy="0.35em" text-anchor="start">Hospitalizations</text><text x="359.3333333333333" y="368.4854014598541" dy="0.35em" text-anchor="start">Short-term</text><text x="51" y="530.4686305179005" dy="0.35em" text-anchor="start">Testing</text><text x="949" y="443.84854014598545" dy="0.35em" text-anchor="end">Other</text><text x="51" y="405.14389989572464" dy="0.35em" text-anchor="start">Demographics</text><text x="51" y="560.7216718804309" dy="0.35em" text-anchor="start">Hospital Resources</text><text x="640.6666666666666" y="452.283067254461" dy="0.35em" text-anchor="end">Hybrid</text><text x="51" y="571.5997566909975" dy="0.35em" text-anchor="start">Rt</text><text x="51" y="476.16623218630514" dy="0.35em" text-anchor="start">Health Risk Factors</text><text x="51" y="491.3226451164407" dy="0.35em" text-anchor="start">Human Behavior</text><text x="51" y="547.3289016336462" dy="0.35em" text-anchor="start">Climate</text><text x="51" y="510.60045185957586" dy="0.35em" text-anchor="start">Policy</text><text x="51" y="380.1118352450469" dy="0.35em" text-anchor="start">Vaccination</text><text x="51" y="582.6459854014597" dy="0.35em" text-anchor="start">Stock Market Data</text><text x="51" y="594.2153284671531" dy="0.35em" text-anchor="start">Wastewater Concentration Of COVID-19</text></g><g font-family="sans-serif" font-size="11"><text y="15" x="37.5" text-anchor="middle">Data</text><text y="15" x="345.8333333333333" text-anchor="middle">Forecasting Window</text><text y="15" x="654.1666666666666" text-anchor="middle">Method</text><text y="15" x="962.5" text-anchor="middle">Target</text></g><g fill="none" stroke-opacity="0.5"><g style="mix-blend-mode: multiply;"><path d="M45,81.69251824817519C191.66666666666666,81.69251824817519,191.66666666666666,81.69251824817519,338.3333333333333,81.69251824817519" stroke="#0d0887" stroke-width="113.38503649635038"/></g><g style="mix-blend-mode: multiply;"><path d="M45,271.3150417101147C191.66666666666666,271.3150417101147,191.66666666666666,166.8293795620438,338.3333333333333,166.8293795620438" stroke="#3c049b" stroke-width="56.88868613138686"/></g><g style="mix-blend-mode: multiply;"><path d="M353.3333333333333,103.07481751824817C500,103.07481751824817,500,107.10598057076332,646.6666666666666,107.10598057076332" stroke="#280592" stroke-width="156.14963503649633"/></g><g style="mix-blend-mode: multiply;"><path d="M661.6666666666666,82.91194164132293C808.3333333333333,82.91194164132293,808.3333333333333,78.88077858880777,955,78.88077858880777" stroke="#4e02a2" stroke-width="107.76155717761556"/></g><g style="mix-blend-mode: multiply;"><path d="M661.6666666666666,159.41741609387768C808.3333333333333,159.41741609387768,808.3333333333333,315.88625304136247,955,315.88625304136247" stroke="#4e02a2" stroke-width="45.24939172749392"/></g><g style="mix-blend-mode: multiply;"><path d="M353.3333333333333,208.220802919708C500,208.220802919708,500,254.35423513767276,646.6666666666666,254.35423513767276" stroke="#280592" stroke-width="54.14233576642336"/></g><g style="mix-blend-mode: multiply;"><path d="M661.6666666666666,285.5318507094489C808.3333333333333,285.5318507094489,808.3333333333333,191.01034063260337,955,191.01034063260337" stroke="#8104a7" stroke-width="116.49756690997567"/></g><g style="mix-blend-mode: multiply;"><path d="M45,439.6574122349669C191.66666666666666,439.6574122349669,191.66666666666666,239.41149635036498,338.3333333333333,239.41149635036498" stroke="#910ea3" stroke-width="19.747566909975667"/></g><g style="mix-blend-mode: multiply;"><path d="M45,360.46037539103236C191.66666666666666,360.46037539103236,191.66666666666666,202.59732360097325,338.3333333333333,202.59732360097325" stroke="#a11b9b" stroke-width="14.64720194647202"/></g><g style="mix-blend-mode: multiply;"><path d="M45,185.62786757038583C191.66666666666666,185.62786757038583,191.66666666666666,319.21363399374354,338.3333333333333,319.21363399374354" stroke="#0d0887" stroke-width="94.48566214807089"/></g><g style="mix-blend-mode: multiply;"><path d="M45,531.384080639555C191.66666666666666,531.384080639555,191.66666666666666,452.56108793882527,338.3333333333333,452.56108793882527" stroke="#bb3488" stroke-width="6.337156760514424"/></g><g style="mix-blend-mode: multiply;"><path d="M353.3333333333333,286.4872262773723C500,286.4872262773723,500,199.6972214466757,646.6666666666666,199.6972214466757" stroke="#ae2892" stroke-width="29.032846715328468"/></g><g style="mix-blend-mode: multiply;"><path d="M45,321.44807959680224C191.66666666666666,321.44807959680224,191.66666666666666,388.1451598887731,338.3333333333333,388.1451598887731" stroke="#3c049b" stroke-width="43.37738964198819"/></g><g style="mix-blend-mode: multiply;"><path d="M661.6666666666666,198.12787838098234C808.3333333333333,198.12787838098234,808.3333333333333,428.78284671532845,955,428.78284671532845" stroke="#4e02a2" stroke-width="32.17153284671534"/></g><g style="mix-blend-mode: multiply;"><path d="M45,399.92022940563083C191.66666666666666,399.92022940563083,191.66666666666666,220.12165450121657,338.3333333333333,220.12165450121657" stroke="#d04d73" stroke-width="18.832116788321166"/></g><g style="mix-blend-mode: multiply;"><path d="M45,414.5599582898853C191.66666666666666,414.5599582898853,191.66666666666666,416.9930483142163,338.3333333333333,416.9930483142163" stroke="#d04d73" stroke-width="10.447340980187695"/></g><g style="mix-blend-mode: multiply;"><path d="M45,560.721671880431C191.66666666666666,560.721671880431,191.66666666666666,460.7216718804311,338.3333333333333,460.7216718804311" stroke="#da5a6a" stroke-width="1.2330552659019811"/></g><g style="mix-blend-mode: multiply;"><path d="M353.3333333333333,448.521897810219C500,448.521897810219,500,465.6224833128551,646.6666666666666,465.6224833128551" stroke="#ae2892" stroke-width="32.956204379562045"/></g><g style="mix-blend-mode: multiply;"><path d="M661.6666666666666,439.4667655512979C808.3333333333333,439.4667655512979,808.3333333333333,266.26034063260335,955,266.26034063260335" stroke="#e26660" stroke-width="34.002433090024326"/></g><g style="mix-blend-mode: multiply;"><path d="M353.3333333333333,366.52372262773724C500,366.52372262773724,500,346.9454760135852,646.6666666666666,346.9454760135852" stroke="#ae2892" stroke-width="131.04014598540147"/></g><g style="mix-blend-mode: multiply;"><path d="M45,571.5997566909975C191.66666666666666,571.5997566909975,191.66666666666666,461.5997566909976,338.3333333333333,461.5997566909976" stroke="#ea7457" stroke-width="1"/></g><g style="mix-blend-mode: multiply;"><path d="M45,457.01733576642323C191.66666666666666,457.01733576642323,191.66666666666666,429.70285888077865,338.3333333333333,429.70285888077865" stroke="#910ea3" stroke-width="14.972280152937088"/></g><g style="mix-blend-mode: multiply;"><path d="M45,477.34323948557517C191.66666666666666,477.34323948557517,191.66666666666666,437.6747480013904,338.3333333333333,437.6747480013904" stroke="#f1834c" stroke-width="1"/></g><g style="mix-blend-mode: multiply;"><path d="M45,492.76120959332627C191.66666666666666,492.76120959332627,191.66666666666666,440.21558915537025,338.3333333333333,440.21558915537025" stroke="#f79143" stroke-width="4.110184219673271"/></g><g style="mix-blend-mode: multiply;"><path d="M661.6666666666666,366.19608428609126C808.3333333333333,366.19608428609126,808.3333333333333,360.9263990267639,955,360.9263990267639" stroke="#8104a7" stroke-width="44.830900243309"/></g><g style="mix-blend-mode: multiply;"><path d="M661.6666666666666,400.5385417070159C808.3333333333333,400.5385417070159,808.3333333333333,456.7956204379562,955,456.7956204379562" stroke="#8104a7" stroke-width="23.854014598540147"/></g><g style="mix-blend-mode: multiply;"><path d="M45,547.9174052832811C191.66666666666666,547.9174052832811,191.66666666666666,457.9174052832813,338.3333333333333,457.9174052832813" stroke="#fba139" stroke-width="4.375477928397636"/></g><g style="mix-blend-mode: multiply;"><path d="M45,507.03953771289537C191.66666666666666,507.03953771289537,191.66666666666666,256.7396593673966,338.3333333333333,256.7396593673966" stroke="#fdb130" stroke-width="4.44647201946472"/></g><g style="mix-blend-mode: multiply;"><path d="M45,489.26755300660403C191.66666666666666,489.26755300660403,191.66666666666666,253.0778588807786,338.3333333333333,253.0778588807786" stroke="#f79143" stroke-width="2.877128953771289"/></g><g style="mix-blend-mode: multiply;"><path d="M353.3333333333333,248.63138686131387C500,248.63138686131387,500,435.8049650646799,646.6666666666666,435.8049650646799" stroke="#280592" stroke-width="26.67883211678832"/></g><g style="mix-blend-mode: multiply;"><path d="M661.6666666666666,478.9618993712493C808.3333333333333,478.9618993712493,808.3333333333333,471.86131386861314,955,471.86131386861314" stroke="#e26660" stroke-width="6.277372262773722"/></g><g style="mix-blend-mode: multiply;"><path d="M661.6666666666666,466.1455976680862C808.3333333333333,466.1455976680862,808.3333333333333,393.01946472019455,955,393.01946472019455" stroke="#e26660" stroke-width="19.35523114355231"/></g><g style="mix-blend-mode: multiply;"><path d="M45,368.75173792144597C191.66666666666666,368.75173792144597,191.66666666666666,410.8016162669448,338.3333333333333,410.8016162669448" stroke="#a11b9b" stroke-width="1.9355231143552312"/></g><g style="mix-blend-mode: multiply;"><path d="M45,527.3000521376433C191.66666666666666,527.3000521376433,191.66666666666666,259.87834549878346,338.3333333333333,259.87834549878346" stroke="#bb3488" stroke-width="1.8309002433090023"/></g><g style="mix-blend-mode: multiply;"><path d="M45,512.8236878693083C191.66666666666666,512.8236878693083,191.66666666666666,445.83159541188746,338.3333333333333,445.83159541188746" stroke="#fdb130" stroke-width="7.12182829336114"/></g><g style="mix-blend-mode: multiply;"><path d="M45,475.68048314216196C191.66666666666666,475.68048314216196,191.66666666666666,250.46228710462287,338.3333333333333,250.46228710462287" stroke="#f1834c" stroke-width="2.3540145985401457"/></g><g style="mix-blend-mode: multiply;"><path d="M45,380.1118352450469C191.66666666666666,380.1118352450469,191.66666666666666,210.3132603406326,338.3333333333333,210.3132603406326" stroke="#fdc229" stroke-width="1"/></g><g style="mix-blend-mode: multiply;"><path d="M45,545.1411626694473C191.66666666666666,545.1411626694473,191.66666666666666,261.38229927007296,338.3333333333333,261.38229927007296" stroke="#fba139" stroke-width="1.1770072992700729"/></g><g style="mix-blend-mode: multiply;"><path d="M45,582.6459854014598C191.66666666666666,582.6459854014598,191.66666666666666,462.6459854014599,338.3333333333333,462.6459854014599" stroke="#fbd324" stroke-width="1.5693430656934306"/></g><g style="mix-blend-mode: multiply;"><path d="M45,594.2153284671531C191.66666666666666,594.2153284671531,191.66666666666666,464.2153284671533,338.3333333333333,464.2153284671533" stroke="#f6e626" stroke-width="1.5693430656934306"/></g></g></svg>